<?xml version="1.0" encoding="UTF-8"?>
<svg width="105px" height="31px" viewBox="0 0 105 31" version="1.1" xmlns="http://www.w3.org/2000/svg" xmlns:xlink="http://www.w3.org/1999/xlink">
    <!-- Generator: Sketch 62 (91390) - https://sketch.com -->
    <title>google-play-badge</title>
    <desc>Created with Sketch.</desc>
    <defs>
        <linearGradient x1="61.024%" y1="4.84%" x2="26.11536%" y2="71.968%" id="linearGradient-1">
            <stop stop-color="#00A0FF" offset="0%"></stop>
            <stop stop-color="#00A1FF" offset="0.7%"></stop>
            <stop stop-color="#00BEFF" offset="26%"></stop>
            <stop stop-color="#00D2FF" offset="51.2%"></stop>
            <stop stop-color="#00DFFF" offset="76%"></stop>
            <stop stop-color="#00E3FF" offset="100%"></stop>
        </linearGradient>
        <linearGradient x1="107.724138%" y1="49.4235294%" x2="-130.669951%" y2="49.4235294%" id="linearGradient-2">
            <stop stop-color="#FFE000" offset="0%"></stop>
            <stop stop-color="#FFBD00" offset="40.9%"></stop>
            <stop stop-color="#FFA500" offset="77.5%"></stop>
            <stop stop-color="#FF9C00" offset="100%"></stop>
        </linearGradient>
        <linearGradient x1="86.3892216%" y1="30.8292932%" x2="-49.8862275%" y2="136.002473%" id="linearGradient-3">
            <stop stop-color="#FF3A44" offset="0%"></stop>
            <stop stop-color="#C31162" offset="100%"></stop>
        </linearGradient>
        <linearGradient x1="-18.5808383%" y1="-11.6832997%" x2="42.2754491%" y2="35.0657182%" id="linearGradient-4">
            <stop stop-color="#32A071" offset="0%"></stop>
            <stop stop-color="#2DA771" offset="6.9%"></stop>
            <stop stop-color="#15CF74" offset="47.6%"></stop>
            <stop stop-color="#06E775" offset="80.1%"></stop>
            <stop stop-color="#00F076" offset="100%"></stop>
        </linearGradient>
    </defs>
    <g id="Symbols" stroke="none" stroke-width="1" fill="none" fill-rule="evenodd">
        <g id="Elements/-Footer-/-New-Sociolla" transform="translate(-839.000000, -215.000000)" fill-rule="nonzero">
            <g id="Group-22">
                <g id="Group-21" transform="translate(0.000000, 93.000000)">
                    <g id="Group-7" transform="translate(735.000000, 36.000000)">
                        <g id="Group-5" transform="translate(0.000000, 86.000000)">
                            <g id="google-play-badge" transform="translate(104.000000, 0.000000)">
                                <path d="M100.71475,30.9891538 L3.87364422,30.9891538 C1.70440346,30.9891538 0,29.2847503 0,27.1155096 L0,3.87364422 C0,1.70440346 1.70440346,0 3.87364422,0 L100.71475,0 C102.883991,0 104.588394,1.70440346 104.588394,3.87364422 L104.588394,27.1155096 C104.588394,29.2847503 102.883991,30.9891538 100.71475,30.9891538 Z" id="Path" fill="#000000"></path>
                                <path d="M100.71475,0.619783076 C102.496626,0.619783076 103.968611,2.09176788 103.968611,3.87364422 L103.968611,27.1155096 C103.968611,28.8973859 102.496626,30.3693707 100.71475,30.3693707 L3.87364422,30.3693707 C2.09176788,30.3693707 0.619783076,28.8973859 0.619783076,27.1155096 L0.619783076,3.87364422 C0.619783076,2.09176788 2.09176788,0.619783076 3.87364422,0.619783076 L100.71475,0.619783076 M100.71475,0 L3.87364422,0 C1.70440346,0 0,1.78187634 0,3.87364422 L0,27.1155096 C0,29.2847503 1.70440346,30.9891538 3.87364422,30.9891538 L100.71475,30.9891538 C102.883991,30.9891538 104.588394,29.2847503 104.588394,27.1155096 L104.588394,3.87364422 C104.588394,1.78187634 102.883991,0 100.71475,0 Z" id="Shape" fill="#A6A6A6"></path>
                                <path d="M36.7221472,7.90223422 C36.7221472,8.52201729 36.5672015,9.06432749 36.1798371,9.45169191 C35.7149998,9.91652921 35.1726896,10.1489479 34.4754336,10.1489479 C33.7781776,10.1489479 33.2358674,9.91652921 32.7710301,9.45169191 C32.3061928,8.9868546 32.0737742,8.44454441 32.0737742,7.74728845 C32.0737742,7.05003249 32.3061928,6.5077223 32.7710301,6.04288499 C33.2358674,5.57804768 33.7781776,5.34562903 34.4754336,5.34562903 C34.7853251,5.34562903 35.0952167,5.42310191 35.4051082,5.57804768 C35.7149998,5.73299345 35.9474184,5.88793922 36.1023642,6.12035787 L35.7149998,6.5077223 C35.4051082,6.12035787 35.0177438,5.96541211 34.4754336,5.96541211 C34.0105963,5.96541211 33.545759,6.12035787 33.2358674,6.5077223 C32.848503,6.81761384 32.6935573,7.28245114 32.6935573,7.82476133 C32.6935573,8.36707152 32.848503,8.83190883 33.2358674,9.14180037 C33.6232319,9.45169191 34.0105963,9.68411056 34.4754336,9.68411056 C35.0177438,9.68411056 35.4051082,9.52916479 35.7924726,9.14180037 C36.0248913,8.90938172 36.1798371,8.59949018 36.1798371,8.21212576 L34.4754336,8.21212576 L34.4754336,7.59234268 L36.7221472,7.59234268 L36.7221472,7.90223422 L36.7221472,7.90223422 Z M40.2858999,5.96541211 L38.1941321,5.96541211 L38.1941321,7.43739691 L40.1309542,7.43739691 L40.1309542,7.9797071 L38.1941321,7.9797071 L38.1941321,9.45169191 L40.2858999,9.45169191 L40.2858999,10.071475 L37.574349,10.071475 L37.574349,5.42310191 L40.2858999,5.42310191 L40.2858999,5.96541211 Z M42.8425051,10.071475 L42.222722,10.071475 L42.222722,5.96541211 L40.905683,5.96541211 L40.905683,5.42310191 L44.1595442,5.42310191 L44.1595442,5.96541211 L42.8425051,5.96541211 L42.8425051,10.071475 Z M46.4062578,10.071475 L46.4062578,5.42310191 L47.0260409,5.42310191 L47.0260409,10.071475 L46.4062578,10.071475 Z M49.660119,10.071475 L49.0403359,10.071475 L49.0403359,5.96541211 L47.7232968,5.96541211 L47.7232968,5.42310191 L50.8996851,5.42310191 L50.8996851,5.96541211 L49.5826461,5.96541211 L49.5826461,10.071475 L49.660119,10.071475 Z M57.020043,9.45169191 C56.5552057,9.91652921 56.0128955,10.1489479 55.3156395,10.1489479 C54.6183836,10.1489479 54.0760734,9.91652921 53.6112361,9.45169191 C53.1463988,8.9868546 52.9139801,8.44454441 52.9139801,7.74728845 C52.9139801,7.05003249 53.1463988,6.5077223 53.6112361,6.04288499 C54.0760734,5.57804768 54.6183836,5.34562903 55.3156395,5.34562903 C56.0128955,5.34562903 56.5552057,5.57804768 57.020043,6.04288499 C57.4848803,6.5077223 57.7172989,7.05003249 57.7172989,7.74728845 C57.7172989,8.44454441 57.4848803,8.9868546 57.020043,9.45169191 Z M54.0760734,9.06432749 C54.3859649,9.37421902 54.8508022,9.60663768 55.3156395,9.60663768 C55.7804768,9.60663768 56.2453141,9.45169191 56.5552057,9.06432749 C56.8650972,8.75443595 57.0975159,8.28959864 57.0975159,7.74728845 C57.0975159,7.20497826 56.9425701,6.74014095 56.5552057,6.43024941 C56.2453141,6.12035787 55.7804768,5.88793922 55.3156395,5.88793922 C54.8508022,5.88793922 54.3859649,6.04288499 54.0760734,6.43024941 C53.7661818,6.74014095 53.5337632,7.20497826 53.5337632,7.74728845 C53.5337632,8.28959864 53.688709,8.75443595 54.0760734,9.06432749 Z M58.5695007,10.071475 L58.5695007,5.42310191 L59.2667566,5.42310191 L61.5134703,9.06432749 L61.5134703,5.42310191 L62.1332534,5.42310191 L62.1332534,10.071475 L61.5134703,10.071475 L59.1118109,6.27530364 L59.1118109,10.071475 L58.5695007,10.071475 L58.5695007,10.071475 Z" id="Shape" stroke="#FFFFFF" stroke-width="0.5" fill="#FFFFFF"></path>
                                <path d="M52.7590343,16.8890888 C50.8996851,16.8890888 49.4277003,18.2836007 49.4277003,20.2204229 C49.4277003,22.0797721 50.8996851,23.5517569 52.7590343,23.5517569 C54.6183836,23.5517569 56.0903684,22.157245 56.0903684,20.2204229 C56.0903684,18.2061279 54.6183836,16.8890888 52.7590343,16.8890888 Z M52.7590343,22.157245 C51.7518868,22.157245 50.8996851,21.3050432 50.8996851,20.14295 C50.8996851,18.9808567 51.7518868,18.128655 52.7590343,18.128655 C53.7661818,18.128655 54.6183836,18.9033838 54.6183836,20.14295 C54.6183836,21.3050432 53.7661818,22.157245 52.7590343,22.157245 Z M45.5540561,16.8890888 C43.6947069,16.8890888 42.222722,18.2836007 42.222722,20.2204229 C42.222722,22.0797721 43.6947069,23.5517569 45.5540561,23.5517569 C47.4134053,23.5517569 48.8853901,22.157245 48.8853901,20.2204229 C48.8853901,18.2061279 47.4134053,16.8890888 45.5540561,16.8890888 Z M45.5540561,22.157245 C44.5469086,22.157245 43.6947069,21.3050432 43.6947069,20.14295 C43.6947069,18.9808567 44.5469086,18.128655 45.5540561,18.128655 C46.5612036,18.128655 47.4134053,18.9033838 47.4134053,20.14295 C47.4134053,21.3050432 46.5612036,22.157245 45.5540561,22.157245 Z M36.9545659,17.8962363 L36.9545659,19.2907482 L40.2858999,19.2907482 C40.2084271,20.0654771 39.8985355,20.6852602 39.5111711,21.0726246 C39.0463338,21.5374619 38.2716049,22.0797721 36.9545659,22.0797721 C34.862798,22.0797721 33.3133403,20.4528415 33.3133403,18.3610736 C33.3133403,16.2693057 34.9402709,14.6423752 36.9545659,14.6423752 C38.0391863,14.6423752 38.891388,15.1072125 39.5111711,15.6495227 L40.5183186,14.6423752 C39.6661169,13.8676463 38.5814965,13.2478632 37.0320388,13.2478632 C34.2430149,13.2478632 31.8413555,15.5720498 31.8413555,18.3610736 C31.8413555,21.1500975 34.2430149,23.474284 37.0320388,23.474284 C38.5814965,23.474284 39.6661169,23.0094467 40.5957915,22.0022992 C41.5254661,21.0726246 41.8353576,19.7555855 41.8353576,18.748438 C41.8353576,18.4385465 41.8353576,18.128655 41.7578847,17.8962363 L36.9545659,17.8962363 L36.9545659,17.8962363 Z M72.1272555,18.9808567 C71.8173639,18.2061279 71.0426351,16.8890888 69.3382316,16.8890888 C67.6338282,16.8890888 66.2393162,18.2061279 66.2393162,20.2204229 C66.2393162,22.0797721 67.6338282,23.5517569 69.4931774,23.5517569 C70.9651622,23.5517569 71.8948368,22.6220823 72.2047283,22.0797721 L71.120108,21.3050432 C70.7327435,21.8473534 70.2679062,22.2347178 69.4931774,22.2347178 C68.7184485,22.2347178 68.2536112,21.9248263 67.8662468,21.2275704 L72.2822012,19.3682211 L72.1272555,18.9808567 L72.1272555,18.9808567 Z M67.6338282,20.0654771 C67.6338282,18.8259109 68.6409757,18.128655 69.3382316,18.128655 C69.8805418,18.128655 70.422852,18.4385465 70.5777978,18.8259109 L67.6338282,20.0654771 Z M63.9926026,23.2418653 L65.4645874,23.2418653 L65.4645874,13.5577548 L63.9926026,13.5577548 L63.9926026,23.2418653 Z M61.6684161,17.5863448 C61.2810516,17.1989804 60.6612686,16.8116159 59.8865397,16.8116159 C58.2596091,16.8116159 56.7101514,18.2836007 56.7101514,20.14295 C56.7101514,22.0022992 58.1821363,23.3968111 59.8865397,23.3968111 C60.6612686,23.3968111 61.2810516,23.0094467 61.5909432,22.6220823 L61.6684161,22.6220823 L61.6684161,23.0869196 C61.6684161,24.3264857 60.9711601,25.0237417 59.8865397,25.0237417 C59.034338,25.0237417 58.4145549,24.4039586 58.2596091,23.8616484 L57.020043,24.4039586 C57.4074074,25.2561603 58.337082,26.3407807 59.9640126,26.3407807 C61.6684161,26.3407807 63.062928,25.3336332 63.062928,22.9319738 L63.062928,17.0440346 L61.6684161,17.0440346 L61.6684161,17.5863448 L61.6684161,17.5863448 Z M59.9640126,22.157245 C58.9568651,22.157245 58.1046634,21.3050432 58.1046634,20.14295 C58.1046634,18.9808567 58.9568651,18.128655 59.9640126,18.128655 C60.9711601,18.128655 61.7458889,18.9808567 61.7458889,20.14295 C61.7458889,21.3050432 60.9711601,22.157245 59.9640126,22.157245 Z M78.8673964,13.5577548 L75.3811166,13.5577548 L75.3811166,23.2418653 L76.8531014,23.2418653 L76.8531014,19.6006398 L78.8673964,19.6006398 C80.494327,19.6006398 82.0437847,18.4385465 82.0437847,16.5791973 C82.0437847,14.7198481 80.494327,13.5577548 78.8673964,13.5577548 L78.8673964,13.5577548 Z M78.9448693,18.2061279 L76.8531014,18.2061279 L76.8531014,14.8747938 L78.9448693,14.8747938 C80.0294897,14.8747938 80.6492728,15.8044684 80.6492728,16.5017244 C80.5717999,17.3539261 79.9520168,18.2061279 78.9448693,18.2061279 Z M87.854251,16.8116159 C86.7696306,16.8116159 85.6850102,17.2764532 85.2976458,18.2836007 L86.6146849,18.8259109 C86.9245764,18.2836007 87.3894137,18.128655 87.9317239,18.128655 C88.7064527,18.128655 89.4037087,18.5934923 89.4811816,19.3682211 L89.4811816,19.445694 C89.2487629,19.2907482 88.6289799,19.0583296 88.0091968,19.0583296 C86.6146849,19.0583296 85.2201729,19.8330584 85.2201729,21.2275704 C85.2201729,22.5446094 86.3822662,23.3968111 87.6218324,23.3968111 C88.6289799,23.3968111 89.0938172,22.9319738 89.4811816,22.4671365 L89.5586545,22.4671365 L89.5586545,23.2418653 L90.9531664,23.2418653 L90.9531664,19.5231669 C90.7982206,17.8187634 89.4811816,16.8116159 87.854251,16.8116159 L87.854251,16.8116159 Z M87.6993052,22.157245 C87.2344679,22.157245 86.537212,21.9248263 86.537212,21.3050432 C86.537212,20.5303144 87.3894137,20.2978957 88.0866697,20.2978957 C88.7064527,20.2978957 89.0163443,20.4528415 89.4037087,20.6077873 C89.2487629,21.5374619 88.4740341,22.157245 87.6993052,22.157245 L87.6993052,22.157245 Z M95.8339581,17.0440346 L94.2070275,21.2275704 L94.1295547,21.2275704 L92.4251512,17.0440346 L90.8756935,17.0440346 L93.4322987,22.9319738 L91.9603139,26.185835 L93.4322987,26.185835 L97.3834158,17.0440346 L95.8339581,17.0440346 L95.8339581,17.0440346 Z M82.8185135,23.2418653 L84.2904983,23.2418653 L84.2904983,13.5577548 L82.8185135,13.5577548 L82.8185135,23.2418653 Z" id="Shape" fill="#FFFFFF"></path>
                                <g id="Group" transform="translate(7.747288, 5.506773)">
                                    <path d="M0.309891538,0.303693707 C0.0774728845,0.536112361 0,0.923476783 0,1.38831409 L0,18.5098216 C0,18.9746589 0.154945769,19.3620233 0.387364422,19.5944419 L0.464837307,19.6719148 L10.071475,10.0652772 L10.071475,9.91033138 L0.309891538,0.303693707 Z" id="Path" fill="url(#linearGradient-1)"></path>
                                    <path d="M13.1703904,13.3191383 L9.9940021,10.14275 L9.9940021,9.91033138 L13.1703904,6.73394312 L13.2478632,6.811416 L17.0440346,8.98065677 C18.128655,9.60043985 18.128655,10.6075873 17.0440346,11.2273704 L13.1703904,13.3191383 L13.1703904,13.3191383 Z" id="Path" fill="url(#linearGradient-2)"></path>
                                    <path d="M13.2478632,13.2416654 L9.9940021,9.98780427 L0.309891538,19.6719148 C0.69725596,20.0592793 1.23956615,20.0592793 1.93682211,19.7493877 L13.2478632,13.2416654" id="Path" fill="url(#linearGradient-3)"></path>
                                    <path d="M13.2478632,6.73394312 L1.93682211,0.303693707 C1.23956615,-0.0836707152 0.69725596,-0.00619783076 0.309891538,0.381166592 L9.9940021,9.98780427 L13.2478632,6.73394312 L13.2478632,6.73394312 Z" id="Path" fill="url(#linearGradient-4)"></path>
                                    <path d="M13.1703904,13.1641925 L1.93682211,19.5169691 C1.31703904,19.9043335 0.774728845,19.8268606 0.387364422,19.5169691 L0.309891538,19.5944419 L0.387364422,19.6719148 C0.774728845,19.9818064 1.31703904,20.0592793 1.93682211,19.6719148 L13.1703904,13.1641925 Z" id="Path" fill="#000000" opacity="0.2"></path>
                                    <path d="M0.309891538,19.5169691 C0.0774728845,19.2845504 -2.77555756e-17,18.897186 -2.77555756e-17,18.4323487 L-2.77555756e-17,18.5098216 C-2.77555756e-17,18.9746589 0.154945769,19.3620233 0.387364422,19.5944419 L0.387364422,19.5169691 L0.309891538,19.5169691 Z M17.0440346,10.9949518 L13.1703904,13.1641925 L13.2478632,13.2416654 L17.0440346,11.0724247 C17.5863448,10.7625331 17.8187634,10.3751687 17.8187634,9.98780427 C17.8187634,10.3751687 17.5088719,10.6850602 17.0440346,10.9949518 L17.0440346,10.9949518 Z" id="Shape" fill="#000000" opacity="0.12"></path>
                                    <path d="M1.93682211,0.381166592 L17.0440346,8.98065677 C17.5088719,9.29054831 17.8187634,9.60043985 17.8187634,9.98780427 C17.8187634,9.60043985 17.5863448,9.21307542 17.0440346,8.90318389 L1.93682211,0.303693707 C0.852201729,-0.316089369 0,0.148747938 0,1.38831409 L0,1.46578697 C0,0.303693707 0.852201729,-0.238616484 1.93682211,0.381166592 Z" id="Path" fill="#FFFFFF" opacity="0.25"></path>
                                </g>
                            </g>
                        </g>
                    </g>
                </g>
            </g>
        </g>
    </g>
</svg>