<?xml version="1.0" encoding="UTF-8"?>
<svg width="92px" height="31px" viewBox="0 0 92 31" version="1.1" xmlns="http://www.w3.org/2000/svg" xmlns:xlink="http://www.w3.org/1999/xlink">
    <!-- Generator: Sketch 62 (91390) - https://sketch.com -->
    <title>Group 29</title>
    <desc>Created with Sketch.</desc>
    <g id="Symbols" stroke="none" stroke-width="1" fill="none" fill-rule="evenodd">
        <g id="Elements/-Footer-/-New-Sociolla" transform="translate(-735.000000, -215.000000)">
            <g id="Group-22">
                <g id="Group-21" transform="translate(0.000000, 93.000000)">
                    <g id="Group-7" transform="translate(735.000000, 36.000000)">
                        <g id="Group-5" transform="translate(0.000000, 86.000000)">
                            <g id="Group-29">
                                <path d="M5.94349413,30.6262555 C5.70616634,30.6262555 5.4750656,30.623061 5.24007296,30.6174626 C4.80432545,30.6054591 4.28843294,30.579855 3.78498981,30.4870702 C3.31033581,30.3990771 2.88859603,30.255084 2.49642374,30.0486859 C2.09024531,29.837496 1.72530695,29.5639173 1.40939091,29.2359196 C1.0872494,28.9103419 0.821910087,28.5375572 0.614930219,28.1183719 C0.413397293,27.7144008 0.275670122,27.2808243 0.192411272,26.792845 C0.0974807843,26.2544642 0.0733589719,25.7088877 0.0632434693,25.2929131 C0.0577966843,25.1241225 0.0515716752,24.5625576 0.0515716752,24.5625576 L0.0515716752,6.08263882 C0.0515716752,6.08263882 0.0585747516,5.52986673 0.0632434693,5.36746512 C0.0733589719,4.94829601 0.0974807843,4.40271954 0.191633205,3.86993707 C0.274892055,3.37876336 0.412619225,2.94518689 0.614930219,2.54040903 C0.82113202,2.12043324 1.08647101,1.74524454 1.4047222,1.42207083 C1.72608533,1.09087868 2.09257888,0.816493204 2.49564536,0.603706118 C2.89559832,0.39490405 3.31656129,0.252524337 3.78187629,0.168516272 C4.30632943,0.0725208851 4.83700805,0.0477234212 5.24162972,0.0373333322 L5.94349413,0.0277337934 L85.9092853,0.0277337934 L86.619715,0.0381238824 C87.0188864,0.0477234212 87.5503356,0.0725208851 88.0662328,0.167725722 C88.5346582,0.252524337 88.9595194,0.395710734 89.3664746,0.606110036 C89.765646,0.816493204 90.1305907,1.09087868 90.4488324,1.41886023 C90.7686435,1.74364731 91.0339836,2.12122379 91.2456374,2.54200626 C91.4463844,2.95078527 91.582554,3.38436175 91.662699,3.86114422 C91.7521972,4.36591862 91.7801938,4.88429371 91.797315,5.37067572 C91.7996533,5.5970635 91.7996533,5.84105312 91.7996533,6.08263882 C91.8066525,6.38262844 91.8066525,6.66821068 91.8066525,6.95619685 L91.8066525,23.6985991 C91.8066525,23.988973 91.8066525,24.272958 91.7996533,24.5585564 C91.7996533,24.8185345 91.7996533,25.0569258 91.7965461,25.3025126 C91.7801938,25.7736967 91.7521972,26.2912651 91.6634837,26.7848427 C91.582554,27.2752259 91.4463844,27.7088024 91.2432991,28.1207758 C91.0339836,28.5367666 90.7670899,28.9119392 90.453509,29.2295306 C90.1313596,29.5639173 89.7664307,29.8366894 89.364921,30.0470887 C88.9602883,30.2582785 88.5486722,30.3982704 88.0662328,30.4870702 C87.5682415,30.579855 87.0523443,30.6054591 86.6119312,30.6174626 C86.3847255,30.623061 86.1450594,30.6262555 85.9131772,30.6262555 L85.0697007,30.6278527 L5.94349413,30.6262555" id="Fill-4" fill="#000000"></path>
                                <path d="M18.6455244,15.5677898 C18.6260648,13.3670915 20.3978393,12.2959443 20.4795536,12.2455427 C19.4757714,10.7416096 17.919527,10.5360181 17.3732949,10.5200296 C16.0668229,10.3784243 14.8000515,11.323987 14.1339801,11.323987 C13.4554608,11.323987 12.4306765,10.5336303 11.3265256,10.5576211 C9.90567865,10.5800147 8.57509412,11.4263874 7.84599579,12.7399109 C6.34111194,15.4181822 7.46393932,19.3547997 8.90501631,21.5195038 C9.62633397,22.5802448 10.4690367,23.7649892 11.5724108,23.7225899 C12.651663,23.6769961 13.0547279,23.0146279 14.3573001,23.0146279 C15.6482076,23.0146279 16.0263659,23.7225899 17.1515347,23.6961952 C18.3093767,23.6769961 19.0392503,22.6306464 19.735666,21.5602897 C20.569036,20.3451495 20.9036144,19.147611 20.9168437,19.0868193 C20.8896161,19.0772198 18.6673065,18.2060496 18.6455244,15.5677898" id="Fill-6" fill="#FFFFFE"></path>
                                <path d="M16.5196964,9.0960873 C17.100171,8.3497272 17.4970198,7.33458001 17.3872932,6.30342821 C16.546924,6.34182637 15.4964704,6.90100353 14.8910907,7.63135903 C14.3557449,8.27452812 13.877979,9.32888015 14.0009224,10.3200366 C14.9447818,10.3928317 15.9143167,9.83046008 16.5196964,9.0960873" id="Fill-7" fill="#FFFFFE"></path>
                                <path d="M28.9867261,19.799573 L31.9062361,19.799573 L30.4667174,15.4421891 L30.4270294,15.4421891 L28.9867261,19.799573 Z M32.2882863,21.0387202 L28.6054449,21.0387202 L27.7207268,23.7233966 L26.1605905,23.7233966 L29.649684,13.7894712 L31.2705058,13.7894712 L34.7588147,23.7233966 L33.1722354,23.7233966 L32.2882863,21.0387202 L32.2882863,21.0387202 Z" id="Fill-8" fill="#FFFFFE"></path>
                                <path d="M40.8071345,20.1027571 C40.8071345,18.6364316 40.0694771,17.6724765 38.9451087,17.6724765 C37.8401684,17.6724765 37.0970655,18.6564373 37.0970655,20.1027571 C37.0970655,21.561887 37.8401684,22.5394427 38.9451087,22.5394427 C40.0694771,22.5394427 40.8071345,21.5818927 40.8071345,20.1027571 Z M42.2933561,20.1027571 C42.2933561,22.3530503 41.1215001,23.7993862 39.3528329,23.7993862 C38.3490665,23.7993862 37.5522615,23.3378016 37.1367535,22.5322471 L37.1032957,22.5322471 L37.1032957,26.1192801 L35.6567621,26.1192801 L35.6567621,16.4805365 L37.0566085,16.4805365 L37.0566085,17.6852867 L37.0830672,17.6852867 C37.4853458,16.9085146 38.3428363,16.4053374 39.3263742,16.4053374 C41.1145009,16.4053374 42.2933561,17.8580784 42.2933561,20.1027571 L42.2933561,20.1027571 Z" id="Fill-9" fill="#FFFFFE"></path>
                                <path d="M48.5603288,20.1027571 C48.5603288,18.6364316 47.8234403,17.6724765 46.6990562,17.6724765 C45.5941316,17.6724765 44.8510287,18.6564373 44.8510287,20.1027571 C44.8510287,21.561887 45.5941316,22.5394427 46.6990562,22.5394427 C47.8234403,22.5394427 48.5603288,21.5818927 48.5603288,20.1027571 Z M50.0465346,20.1027571 C50.0465346,22.3530503 48.8754633,23.7993862 47.1067961,23.7993862 C46.1030296,23.7993862 45.3062247,23.3378016 44.8907167,22.5322471 L44.8572588,22.5322471 L44.8572588,26.1192801 L43.4107253,26.1192801 L43.4107253,16.4805365 L44.8105717,16.4805365 L44.8105717,17.6852867 L44.8370304,17.6852867 C45.239309,16.9085146 46.0960148,16.4053374 47.0803374,16.4053374 C48.8684641,16.4053374 50.0465346,17.8580784 50.0465346,20.1027571 L50.0465346,20.1027571 Z" id="Fill-10" fill="#FFFFFE"></path>
                                <path d="M55.1720019,20.9555188 C55.2786056,21.9410768 56.2100265,22.5874404 57.4814714,22.5874404 C58.7007835,22.5874404 59.5777177,21.9410768 59.5777177,21.0523209 C59.5777177,20.2811633 59.0486069,19.8195788 57.7966059,19.5036007 L56.5438359,19.1932048 C54.7697232,18.7524327 53.9456906,17.899671 53.9456906,16.5149335 C53.9456906,14.8014239 55.3992233,13.6238751 57.4620118,13.6238751 C59.5038029,13.6238751 60.9036336,14.8014239 60.9503207,16.5149335 L59.4905736,16.5149335 C59.4034294,15.5237771 58.6058555,14.9254112 57.4417833,14.9254112 C56.2761576,14.9254112 55.4793683,15.5309889 55.4793683,16.4117425 C55.4793683,17.1141061 55.9882507,17.5276929 57.2340215,17.8444777 L58.2984891,18.1124581 C60.2811483,18.5948389 61.1051652,19.4132037 61.1051652,20.8667352 C61.1051652,22.7250445 59.6648776,23.8889765 57.3748677,23.8889765 C55.2319184,23.8889765 53.784616,22.7522298 53.6912416,20.9555188 L55.1720019,20.9555188" id="Fill-11" fill="#FFFFFE"></path>
                                <path d="M64.2254222,14.7670269 L64.2254222,16.4805365 L65.565352,16.4805365 L65.565352,17.6580853 L64.2254222,17.6580853 L64.2254222,21.6506867 C64.2254222,22.2714623 64.4938853,22.560239 65.0829127,22.560239 C65.229989,22.560239 65.4649785,22.5394427 65.5583529,22.525842 L65.5583529,23.6961952 C65.3980629,23.7377878 65.0766982,23.7649892 64.7553335,23.7649892 C63.3290441,23.7649892 62.7726742,23.2138143 62.7726742,21.8098777 L62.7726742,17.6580853 L61.7486793,17.6580853 L61.7486793,16.4805365 L62.7726742,16.4805365 L62.7726742,14.7670269 L64.2254222,14.7670269" id="Fill-12" fill="#FFFFFE"></path>
                                <path d="M71.5506481,20.1027571 C71.5506481,18.5396456 70.8542323,17.6164765 69.6823764,17.6164765 C68.5105361,17.6164765 67.8148893,18.5460346 67.8148893,20.1027571 C67.8148893,21.6722897 68.5105361,22.5874404 69.6823764,22.5874404 C70.8542323,22.5874404 71.5506481,21.6722897 71.5506481,20.1027571 Z M66.3411438,20.1027571 C66.3411438,17.8236814 67.6468155,16.3917367 69.6823764,16.3917367 C71.7249521,16.3917367 73.0244092,17.8236814 73.0244092,20.1027571 C73.0244092,22.3874473 71.7319512,23.8129869 69.6823764,23.8129869 C67.6335861,23.8129869 66.3411438,22.3874473 66.3411438,20.1027571 L66.3411438,20.1027571 Z" id="Fill-13" fill="#FFFFFE"></path>
                                <path d="M74.2164937,16.4805365 L75.5960958,16.4805365 L75.5960958,17.7132786 L75.6295537,17.7132786 C75.8505292,16.8941234 76.4932586,16.4053374 77.3235214,16.4053374 C77.5312675,16.4053374 77.7048026,16.4333455 77.8191744,16.4605469 L77.8191744,17.8508666 C77.7048026,17.8028689 77.4503536,17.7612763 77.1694458,17.7612763 C76.2388252,17.7612763 75.6630115,18.4092532 75.6630115,19.4275949 L75.6630115,23.7233966 L74.2164937,23.7233966 L74.2164937,16.4805365" id="Fill-14" fill="#FFFFFE"></path>
                                <path d="M79.5979637,19.4347905 L83.1197304,19.4347905 C83.0862726,18.3260519 82.396856,17.5964869 81.3923049,17.5964869 C80.3947529,17.5964869 79.6718785,18.3404431 79.5979637,19.4347905 Z M84.4861032,21.5963001 C84.2915707,22.9114369 83.0465845,23.8129869 81.453006,23.8129869 C79.4034312,23.8129869 78.1312017,22.4018547 78.1312017,20.1371702 C78.1312017,17.865274 79.4104303,16.3917367 81.3923049,16.3917367 C83.3414906,16.3917367 84.5670329,17.7684719 84.5670329,19.9643785 L84.5670329,20.4739446 L79.5909645,20.4739446 L79.5909645,20.5635349 C79.5909645,21.8026821 80.3480657,22.6146418 81.4864639,22.6146418 C82.2894833,22.6146418 82.9197523,22.2226579 83.1135002,21.5963001 L84.4861032,21.5963001 L84.4861032,21.5963001 Z" id="Fill-15" fill="#FFFFFE"></path>
                                <path d="M27.8498973,10.4104336 L28.7252779,10.4104336 C29.6963712,10.4104336 30.2558326,9.78886746 30.2558326,8.69371336 C30.2558326,7.61537055 29.6870337,6.9865927 28.7252779,6.9865927 L27.8498973,6.9865927 L27.8498973,10.4104336 Z M28.8054229,6.31222107 C30.1827025,6.31222107 30.9903828,7.18177794 30.9903828,8.68411382 C30.9903828,10.2088432 30.188917,11.0855957 28.8054229,11.0855957 L27.1285765,11.0855957 L27.1285765,6.31222107 L28.8054229,6.31222107 L28.8054229,6.31222107 Z" id="Fill-16" fill="#FFFFFE"></path>
                                <path d="M34.3985467,9.28247969 C34.3985467,8.50172258 34.0569535,8.04573643 33.4585729,8.04573643 C32.8571009,8.04573643 32.5193839,8.50172258 32.5193839,9.28247969 C32.5193839,10.0696419 32.8571009,10.5232241 33.4585729,10.5232241 C34.0569535,10.5232241 34.3985467,10.0664474 34.3985467,9.28247969 Z M31.8050779,9.28247969 C31.8050779,8.12174218 32.435347,7.41378024 33.4585729,7.41378024 C34.4786917,7.41378024 35.1097454,8.12174218 35.1097454,9.28247969 C35.1097454,10.4504289 34.4818146,11.1551964 33.4585729,11.1551964 C32.4322397,11.1551964 31.8050779,10.4504289 31.8050779,9.28247969 L31.8050779,9.28247969 Z" id="Fill-17" fill="#FFFFFE"></path>
                                <polyline id="Fill-18" fill="#FFFFFE" points="39.5022319 11.0855957 38.784803 11.0855957 38.0611596 8.43212189 38.0059039 8.43212189 37.2853678 11.0855957 36.5749537 11.0855957 35.6085213 7.48336479 36.3103826 7.48336479 36.9375601 10.2320435 36.9896928 10.2320435 37.7102289 7.48336479 38.3731869 7.48336479 39.093723 10.2320435 39.148194 10.2320435 39.7730175 7.48336479 40.4647724 7.48336479 39.5022319 11.0855957"></polyline>
                                <path d="M41.2771292,7.48336479 L41.9424254,7.48336479 L41.9424254,8.05533596 L41.9937735,8.05533596 C42.1641856,7.65536594 42.512009,7.41378024 43.0395662,7.41378024 C43.8215725,7.41378024 44.2526638,7.89614496 44.2526638,8.75371451 L44.2526638,11.0855957 L43.560909,11.0855957 L43.560909,8.93210459 C43.560909,8.35292166 43.316582,8.0649355 42.8045767,8.0649355 C42.2933561,8.0649355 41.9680994,8.41613342 41.9680994,8.97769837 L41.9680994,11.0855957 L41.2771292,11.0855957 L41.2771292,7.48336479" id="Fill-19" fill="#FFFFFE"></path>
                                <polygon id="Fill-20" fill="#FFFFFE" points="45.3544655 6.07704043 46.0462204 6.07704043 46.0462204 11.0855957 45.3544655 11.0855957"></polygon>
                                <path d="M49.600676,9.28247969 C49.600676,8.50172258 49.2590828,8.04573643 48.6607023,8.04573643 C48.0592145,8.04573643 47.7215132,8.50172258 47.7215132,9.28247969 C47.7215132,10.0696419 48.0592145,10.5232241 48.6607023,10.5232241 C49.2590828,10.5232241 49.600676,10.0664474 49.600676,9.28247969 Z M47.0071916,9.28247969 C47.0071916,8.12174218 47.6374763,7.41378024 48.6607023,7.41378024 C49.680821,7.41378024 50.3118747,8.12174218 50.3118747,9.28247969 C50.3118747,10.4504289 49.6839282,11.1551964 48.6607023,11.1551964 C47.634369,11.1551964 47.0071916,10.4504289 47.0071916,9.28247969 L47.0071916,9.28247969 Z" id="Fill-21" fill="#FFFFFE"></path>
                                <path d="M53.2920702,9.75926216 L53.2920702,9.4576753 L52.436918,9.5136753 C51.9544786,9.54726562 51.7358257,9.71605617 51.7358257,10.0336476 C51.7358257,10.357628 52.0089496,10.5464243 52.3847853,10.5464243 C52.9061281,10.5464243 53.2920702,10.2056326 53.2920702,9.75926216 Z M51.0401946,10.0664474 C51.0401946,9.41847046 51.5094047,9.04408845 52.3435437,8.99129906 L53.2920702,8.93529906 L53.2920702,8.62411267 C53.2920702,8.24413227 53.0477432,8.02894127 52.5754259,8.02894127 C52.1894681,8.02894127 51.9218055,8.17453158 51.8447677,8.42892742 L51.1755796,8.42892742 C51.2463872,7.81055579 51.8120945,7.41378024 52.6073301,7.41378024 C53.485818,7.41378024 53.9807021,7.86334519 53.9807021,8.62411267 L53.9807021,11.0855957 L53.3154216,11.0855957 L53.3154216,10.5792241 L53.260166,10.5792241 C53.0516351,10.9400054 52.6688003,11.1447902 52.208143,11.1447902 C51.5327404,11.1447902 51.0401946,10.7248144 51.0401946,10.0664474 L51.0401946,10.0664474 Z" id="Fill-22" fill="#FFFFFE"></path>
                                <path d="M55.6038622,9.28247969 C55.6038622,10.0464416 55.9540239,10.5064289 56.539944,10.5064289 C57.1227569,10.5064289 57.483025,10.0400527 57.483025,9.28569029 C57.483025,8.5353129 57.118865,8.06174103 56.539944,8.06174103 C55.9579158,8.06174103 55.6038622,8.52492281 55.6038622,9.28247969 Z M54.8895563,9.28247969 C54.8895563,8.14413573 55.4591398,7.42337978 56.3438579,7.42337978 C56.823959,7.42337978 57.228576,7.65856041 57.4184319,8.05533596 L57.4705803,8.05533596 L57.4705803,6.07704043 L58.1615505,6.07704043 L58.1615505,11.0855957 L57.4993616,11.0855957 L57.4993616,10.5160285 L57.4441216,10.5160285 C57.2355751,10.9104001 56.8262973,11.1447902 56.3438579,11.1447902 C55.4529096,11.1447902 54.8895563,10.4240342 54.8895563,9.28247969 L54.8895563,9.28247969 Z" id="Fill-23" fill="#FFFFFE"></path>
                                <path d="M63.6161664,9.28247969 C63.6161664,8.50172258 63.2745732,8.04573643 62.6761926,8.04573643 C62.0747049,8.04573643 61.7370036,8.50172258 61.7370036,9.28247969 C61.7370036,10.0696419 62.0747049,10.5232241 62.6761926,10.5232241 C63.2745732,10.5232241 63.6161664,10.0664474 63.6161664,9.28247969 Z M61.0226819,9.28247969 C61.0226819,8.12174218 61.6537513,7.41378024 62.6761926,7.41378024 C63.6963114,7.41378024 64.3273651,8.12174218 64.3273651,9.28247969 C64.3273651,10.4504289 63.6994186,11.1551964 62.6761926,11.1551964 C61.6506284,11.1551964 61.0226819,10.4504289 61.0226819,9.28247969 L61.0226819,9.28247969 Z" id="Fill-24" fill="#FFFFFE"></path>
                                <path d="M65.2556631,7.48336479 L65.9209592,7.48336479 L65.9209592,8.05533596 L65.9723073,8.05533596 C66.1427194,7.65536594 66.4905428,7.41378024 67.0181,7.41378024 C67.8001063,7.41378024 68.231182,7.89614496 68.231182,8.75371451 L68.231182,11.0855957 L67.5394428,11.0855957 L67.5394428,8.93210459 C67.5394428,8.35292166 67.2951159,8.0649355 66.7831105,8.0649355 C66.2718899,8.0649355 65.9466333,8.41613342 65.9466333,8.97769837 L65.9466333,11.0855957 L65.2556631,11.0855957 L65.2556631,7.48336479" id="Fill-25" fill="#FFFFFE"></path>
                                <path d="M72.1381218,6.58660654 L72.1381218,7.4993694 L72.897577,7.4993694 L72.897577,8.09854196 L72.1381218,8.09854196 L72.1381218,9.95044625 C72.1381218,10.3280389 72.2898591,10.4936188 72.6337906,10.4936188 C72.7403943,10.4936188 72.8010797,10.4864232 72.897577,10.4768236 L72.897577,11.0688006 C72.7847432,11.0887902 72.6555727,11.1056015 72.5209567,11.1056015 C71.7521797,11.1056015 71.4463827,10.8272149 71.4463827,10.1328375 L71.4463827,8.09854196 L70.8900284,8.09854196 L70.8900284,7.4993694 L71.4463827,7.4993694 L71.4463827,6.58660654 L72.1381218,6.58660654" id="Fill-26" fill="#FFFFFE"></path>
                                <path d="M73.8422116,6.07704043 L74.5277363,6.07704043 L74.5277363,8.06174103 L74.5822073,8.06174103 C74.7518348,7.65856041 75.1222249,7.4169747 75.6505668,7.4169747 C76.396777,7.4169747 76.8574186,7.90335671 76.8574186,8.76010344 L76.8574186,11.0855957 L76.1648947,11.0855957 L76.1648947,8.93529906 C76.1648947,8.36013342 75.9042312,8.0681461 75.4155616,8.0681461 C74.849101,8.0681461 74.5331818,8.43612305 74.5331818,8.98169952 L74.5331818,11.0855957 L73.8422116,11.0855957 L73.8422116,6.07704043" id="Fill-27" fill="#FFFFFE"></path>
                                <path d="M78.4564583,8.95209422 L80.2266791,8.95209422 C80.2103425,8.38652812 79.8757484,8.01855118 79.3637431,8.01855118 C78.8525225,8.01855118 78.4953616,8.38972259 78.4564583,8.95209422 Z M80.888868,10.1128479 C80.7316852,10.7584209 80.1714391,11.1551964 79.3707423,11.1551964 C78.3669758,11.1551964 77.7522587,10.4472345 77.7522587,9.29528983 C77.7522587,8.14413573 78.3802052,7.41378024 79.367635,7.41378024 C80.3426202,7.41378024 80.9308786,8.09854196 80.9308786,9.22969029 L80.9308786,9.47768107 L78.4564583,9.47768107 L78.4564583,9.51767645 C78.4798097,10.1488421 78.8369548,10.5496188 79.3894172,10.5496188 C79.8088328,10.5496188 80.095186,10.3936384 80.2235718,10.1128479 L80.888868,10.1128479 L80.888868,10.1128479 Z" id="Fill-28" fill="#FFFFFE"></path>
                            </g>
                        </g>
                    </g>
                </g>
            </g>
        </g>
    </g>
</svg>